<svg id="Layer_1" data-name="Layer 1" xmlns="http://www.w3.org/2000/svg" xmlns:xlink="http://www.w3.org/1999/xlink" viewBox="0 0 100 30"><defs><style>.cls-1{fill:none;}.cls-2{fill:url(#linear-gradient);}.cls-3{fill:url(#linear-gradient-2);}.cls-4{fill:#fff;}.cls-5{fill:#007aff;}</style><linearGradient id="linear-gradient" x1="16.94" y1="1.75" x2="8.88" y2="11.35" gradientUnits="userSpaceOnUse"><stop offset="0" stop-color="#059d61"/><stop offset="0" stop-color="#0a9d62"/><stop offset="0.01" stop-color="#209f64"/><stop offset="0.02" stop-color="#31a066"/><stop offset="0.03" stop-color="#3ca067"/><stop offset="0.05" stop-color="#43a168"/><stop offset="0.1" stop-color="#45a168"/><stop offset="0.12" stop-color="#45a568"/><stop offset="0.19" stop-color="#46bb66"/><stop offset="0.28" stop-color="#47cc65"/><stop offset="0.4" stop-color="#48d765"/><stop offset="0.56" stop-color="#48de64"/><stop offset="1" stop-color="#48e064"/></linearGradient><linearGradient id="linear-gradient-2" x1="9.05" y1="29.7" x2="25.22" y2="1.7" gradientUnits="userSpaceOnUse"><stop offset="0" stop-color="#059d61"/><stop offset="0" stop-color="#0a9d62"/><stop offset="0.01" stop-color="#209f64"/><stop offset="0.03" stop-color="#31a066"/><stop offset="0.05" stop-color="#3ca067"/><stop offset="0.07" stop-color="#43a168"/><stop offset="0.14" stop-color="#45a168"/><stop offset="0.16" stop-color="#45a568"/><stop offset="0.36" stop-color="#46bf66"/><stop offset="0.56" stop-color="#47d165"/><stop offset="0.77" stop-color="#48dc64"/><stop offset="1" stop-color="#48e064"/></linearGradient></defs><title>Artboard 4</title><path class="cls-1" d="M23.13,18.14a3,3,0,0,1,0,.31,1.91,1.91,0,0,1-.08.54,1.44,1.44,0,0,0,.1-.5A2,2,0,0,0,23.13,18.14Z"/><path class="cls-2" d="M20.55,7a7.68,7.68,0,0,0-8-6.18H11.22A6.15,6.15,0,0,0,6.49,2.6,35,35,0,0,0,3.08,6.48H18.52a2,2,0,0,1,2,2,2,2,0,0,1-1,1.76,1.83,1.83,0,0,0,.84-.78A3.79,3.79,0,0,0,20.55,7Z"/><path class="cls-3" d="M26.24,11.32s2.26-.8,2.26-4.68c0-2.5-2.34-5.82-7.13-5.82H12.58a7.68,7.68,0,0,1,8,6.18,3.79,3.79,0,0,1-.21,2.47,1.83,1.83,0,0,1-.84.78,2,2,0,0,1-1,.25H3.92a1.9,1.9,0,0,0-1.67,1.95V24.6a1.88,1.88,0,0,0,1.8,1.95H24.41c3.61,0,6.67-3.53,6.67-7.63C31.08,12.68,26.79,11.43,26.24,11.32ZM23.07,19a2,2,0,0,1-1.93,1.47H10.6a2,2,0,1,1,0-4H21.14a2,2,0,0,1,2,1.7,2,2,0,0,1,0,.35A1.44,1.44,0,0,1,23.07,19Z"/><path class="cls-4" d="M20.16,9.54l-.08.14v0Z"/><path class="cls-4" d="M20.08,9.68a.64.64,0,0,1,0,.07l0,0Z"/><path class="cls-5" d="M47.29,22.69a7.6,7.6,0,0,1-3,2.85,9,9,0,0,1-8.3,0,7.58,7.58,0,0,1-3-2.85A8,8,0,0,1,32,18.54a8,8,0,0,1,1.08-4.15,7.6,7.6,0,0,1,3-2.86,8.88,8.88,0,0,1,8.3,0,7.63,7.63,0,0,1,3,2.86,8,8,0,0,1,1.08,4.15A8,8,0,0,1,47.29,22.69ZM44.14,16a4.52,4.52,0,0,0-7.93,0,5.15,5.15,0,0,0-.61,2.53,5.11,5.11,0,0,0,.61,2.52,4.54,4.54,0,0,0,7.93,0,5.45,5.45,0,0,0,0-5Z"/><path class="cls-5" d="M57.65,23.76a1.46,1.46,0,0,1,.34,1A1.48,1.48,0,0,1,57.12,26a3.64,3.64,0,0,1-1.94.52,5.86,5.86,0,0,1-3-.74c-.83-.5-1.25-1.55-1.25-3.16V14.91H49.54a1.61,1.61,0,0,1-1.17-.45,1.52,1.52,0,0,1-.47-1.13,1.42,1.42,0,0,1,.47-1.08,1.64,1.64,0,0,1,1.17-.43h1.34V10.51a1.61,1.61,0,0,1,.51-1.22,1.79,1.79,0,0,1,1.28-.5,1.67,1.67,0,0,1,1.22.5,1.6,1.6,0,0,1,.5,1.22v1.31h2.08a1.65,1.65,0,0,1,1.17.45,1.49,1.49,0,0,1,.46,1.12,1.41,1.41,0,0,1-.46,1.08,1.68,1.68,0,0,1-1.17.44H54.39v7.6a1.08,1.08,0,0,0,.32.86,1.4,1.4,0,0,0,.88.26,2.3,2.3,0,0,0,.64-.11,1.92,1.92,0,0,1,.68-.14A1,1,0,0,1,57.65,23.76Z"/><path class="cls-5" d="M73.29,11a1.66,1.66,0,0,1,.52,1.27V24.79a1.68,1.68,0,0,1-.52,1.26,1.86,1.86,0,0,1-1.33.5,2,2,0,0,1-1.41-.43,2.09,2.09,0,0,1-.43-1.6A6.12,6.12,0,0,1,68,26a6.49,6.49,0,0,1-2.75.6,7.33,7.33,0,0,1-6.56-3.88,8.39,8.39,0,0,1-1-4.13,8.71,8.71,0,0,1,1-4.15,7.28,7.28,0,0,1,2.69-2.86,7.15,7.15,0,0,1,3.77-1,7.69,7.69,0,0,1,2.77.5,7.36,7.36,0,0,1,2.18,1.29v0A1.68,1.68,0,0,1,70.64,11a2,2,0,0,1,2.65,0ZM69,22a4.89,4.89,0,0,0,1.26-3.45A5,5,0,0,0,69,15.07a4.47,4.47,0,0,0-6.48,0,5,5,0,0,0-1.26,3.47A4.92,4.92,0,0,0,62.51,22a4.16,4.16,0,0,0,3.24,1.38A4.2,4.2,0,0,0,69,22Z"/><path d="M80.74,18.71a3.73,3.73,0,0,1,1.38,1.51,5,5,0,0,1,0,4.37,3.88,3.88,0,0,1-1.37,1.52,3.55,3.55,0,0,1-2,.56,3.41,3.41,0,0,1-1.73-.45A3.46,3.46,0,0,1,75.81,25v4.3a.48.48,0,0,1-.14.35.5.5,0,0,1-.35.14.48.48,0,0,1-.35-.14.45.45,0,0,1-.14-.35V18.7a.48.48,0,0,1,.14-.36.45.45,0,0,1,.35-.15.47.47,0,0,1,.35.15.52.52,0,0,1,.14.36v1.11A3,3,0,0,1,77,18.6a3.62,3.62,0,0,1,1.76-.44A3.57,3.57,0,0,1,80.74,18.71Zm-.51,6.61a3,3,0,0,0,1.06-1.2,4.06,4.06,0,0,0,0-3.43,3,3,0,0,0-1.06-1.18,2.76,2.76,0,0,0-1.52-.44,2.89,2.89,0,0,0-1.55.43,2.76,2.76,0,0,0-1.06,1.18,4.08,4.08,0,0,0,0,3.44,2.88,2.88,0,0,0,1.06,1.2,2.8,2.8,0,0,0,1.55.43A2.75,2.75,0,0,0,80.23,25.32Z"/><path d="M91,24.6a4.08,4.08,0,0,1-7.17,0,4.89,4.89,0,0,1,0-4.43,4.06,4.06,0,0,1,7.17,0,4.81,4.81,0,0,1,0,4.43Zm-.84-4A3.14,3.14,0,0,0,89,19.39a3.07,3.07,0,0,0-3.2,0,3.2,3.2,0,0,0-1.13,1.23,3.66,3.66,0,0,0-.42,1.76,3.61,3.61,0,0,0,.42,1.74,3.06,3.06,0,0,0,1.13,1.23,3.1,3.1,0,0,0,3.2,0,3.05,3.05,0,0,0,1.14-1.22,4.07,4.07,0,0,0,0-3.52Z"/><path d="M91.51,24.87a.34.34,0,0,1,.21-.32.34.34,0,0,1,.26-.1.5.5,0,0,1,.36.16,3,3,0,0,0,2.56,1.27,2.53,2.53,0,0,0,1.36-.36,1.21,1.21,0,0,0,.58-1.07,1.14,1.14,0,0,0-.54-1,5.45,5.45,0,0,0-1.5-.58A6.49,6.49,0,0,1,92.68,22a1.84,1.84,0,0,1-.76-1.61,2,2,0,0,1,.37-1.19,2.47,2.47,0,0,1,1-.83A3.59,3.59,0,0,1,94.77,18a3.92,3.92,0,0,1,1.41.27,2.93,2.93,0,0,1,1.21.86.37.37,0,0,1,.15.32.46.46,0,0,1-.16.34.44.44,0,0,1-.3.1.39.39,0,0,1-.29-.13,2.58,2.58,0,0,0-.93-.67,3,3,0,0,0-1.16-.23,2.34,2.34,0,0,0-1.31.36,1.21,1.21,0,0,0-.54,1.08,1.17,1.17,0,0,0,.59,1,6.15,6.15,0,0,0,1.65.62,8,8,0,0,1,1.41.47,2.41,2.41,0,0,1,.9.74,2.06,2.06,0,0,1,.35,1.25,2,2,0,0,1-.85,1.69,3.4,3.4,0,0,1-2.1.62,3.82,3.82,0,0,1-3.16-1.48A.69.69,0,0,1,91.51,24.87Z"/></svg>